<svg id="Group_8" data-name="Group 8" xmlns="http://www.w3.org/2000/svg" width="270.03" height="209.265" viewBox="0 0 270.03 209.265">
  <rect id="Rectangle_179" data-name="Rectangle 179" width="270.03" height="3.593" transform="translate(0 197.841)" fill="#6bafbf"/>
  <rect id="Rectangle_180" data-name="Rectangle 180" width="225.81" height="3.593" transform="translate(0 205.672)" fill="#6bafbf"/>
  <g id="Group_6" data-name="Group 6" transform="translate(7.968)">
    <path id="Path_2" data-name="Path 2" d="M323.6,297.2l13.165-4,6.375-9.472h6.275L340.7,296.2,323.2,304.451Z" transform="translate(-141.743 -179.346)" fill="#363c50"/>
    <path id="Path_3" data-name="Path 3" d="M338.371,323.242l10.079.434,3.075,4.831,3.936.568s.375,7.294-1.125,7.957h-6.748Z" transform="translate(-145.539 -188.917)" fill="#c43759"/>
    <ellipse id="Ellipse_13" data-name="Ellipse 13" cx="26.305" cy="26.586" rx="26.305" ry="26.586" transform="translate(150.301 146.158)" fill="#363c50"/>
    <ellipse id="Ellipse_14" data-name="Ellipse 14" cx="14.954" cy="15.114" rx="14.954" ry="15.114" transform="translate(161.826 157.63)" fill="#fff"/>
    <ellipse id="Ellipse_15" data-name="Ellipse 15" cx="11.247" cy="11.367" rx="11.247" ry="11.367" transform="translate(165.543 161.377)" fill="#363c50"/>
    <ellipse id="Ellipse_16" data-name="Ellipse 16" cx="3.561" cy="3.599" rx="3.561" ry="3.599" transform="translate(174.242 170.091)" fill="#fff"/>
    <rect id="Rectangle_181" data-name="Rectangle 181" width="73.669" height="56.722" transform="translate(153.782 46.414)" fill="#eb1d25"/>
    <rect id="Rectangle_182" data-name="Rectangle 182" width="14.527" height="54.75" transform="translate(154.039 46.414)" fill="#d42a0f"/>
    <rect id="Rectangle_183" data-name="Rectangle 183" width="4.217" height="7.199" transform="translate(157.103 46.414)" fill="#ffe9c5"/>
    <path id="Path_4" data-name="Path 4" d="M213.54,371.336v5.683h2.905v-2.842l31.21,4.831v-2.273h18.37l2.062-13.545H256.368Z" transform="translate(-113.916 -198.593)" fill="#363c50"/>
    <path id="Path_5" data-name="Path 5" d="M328.048,381.369,282.5,373.128s-2.624-3.978,1.218-9.188l46.393,7.2A15.034,15.034,0,0,1,328.048,381.369Z" transform="translate(-131.34 -198.774)" fill="#d42a0f"/>
    <ellipse id="Ellipse_17" data-name="Ellipse 17" cx="26.305" cy="26.586" rx="26.305" ry="26.586" transform="translate(0 146.158)" fill="#363c50"/>
    <path id="Path_6" data-name="Path 6" d="M102.982,340.445s15.417,2.685,20.572,7.848,8.32,10.556,14.282,11.814l-1.1-4.631L126.35,344.267,109.4,338.71l-3.894.936S103.5,340.193,102.982,340.445Z" transform="translate(-85.749 -192.663)" fill="#363c50" style="mix-blend-mode: multiply;isolation: isolate"/>
    <ellipse id="Ellipse_18" data-name="Ellipse 18" cx="14.954" cy="15.114" rx="14.954" ry="15.114" transform="translate(11.351 157.63)" fill="#fff"/>
    <ellipse id="Ellipse_19" data-name="Ellipse 19" cx="11.247" cy="11.367" rx="11.247" ry="11.367" transform="translate(15.058 161.377)" fill="#363c50"/>
    <ellipse id="Ellipse_20" data-name="Ellipse 20" cx="3.561" cy="3.599" rx="3.561" ry="3.599" transform="translate(23.743 170.091)" fill="#fff"/>
    <path id="Path_7" data-name="Path 7" d="M219.943,266.51s-39.14,7.128-38.2,15.206,21.16,48.344,21.16,48.344l10.88-3.7s-16.054-34.784-13.939-39.3,42.079-7.246,44.783-21.5C223.234,265.8,219.943,266.51,219.943,266.51Z" transform="translate(-105.855 -174.945)" fill="#d42a0f"/>
    <path id="Path_8" data-name="Path 8" d="M208.724,329.343s-15.325-39.409-14.2-46.1,31.631-16.135,31.631-16.135l3.8.095-21.837,36.374,2.059,25.233Z" transform="translate(-109.03 -175.319)" fill="#d25d4a" style="mix-blend-mode: multiply;isolation: isolate"/>
    <path id="Path_9" data-name="Path 9" d="M206.981,348.732a19.336,19.336,0,0,1-6.523,3.8,4.089,4.089,0,0,0-3.115,4.276s25.918-.95,26.976-1.187a2.587,2.587,0,0,0,2-3.267c-.588-1.841-4.408-8.969-4.408-8.969Z" transform="translate(-109.744 -193.796)" fill="#363c50"/>
    <path id="Path_10" data-name="Path 10" d="M142.523,355.863a21.45,21.45,0,0,1-13.684-5.4c-6.561-5.683-8.529-15.25-45.549-18,0,0,5.623-12.207,17.807-13.966s23.372,2.129,28.96,9.23,11.247,19.986,12.465,25.2C143.179,355.579,142.523,355.863,142.523,355.863Z" transform="translate(-80.822 -187.666)" fill="#004f62"/>
    <path id="Path_11" data-name="Path 11" d="M168.5,261.964l1.874-4.357h8l-8.178,20.841Z" transform="translate(-102.409 -173.019)" fill="#004f62"/>
    <path id="Path_12" data-name="Path 12" d="M162.658,323.176s4.863,18.819,15.485,19.829,39.238,0,39.238,0,10.5-10.736,5.749-22.481-7.248-13.892-7.248-13.892l.375-6.441h66.981V308.4s24.368,14.277,27.117,43.133H248l-2.5,5.492H182.642S161.293,347.425,162.658,323.176Z" transform="translate(-101.558 -183.333)" fill="#004f62"/>
    <path id="Path_13" data-name="Path 13" d="M185.6,365.4s-16.255-9.753-19-24.657l-2.558-5.961,1.875,16.379,8.9,10.4L183,365.4Z" transform="translate(-101.295 -191.712)" fill="#004f62" style="mix-blend-mode: multiply;isolation: isolate"/>
    <path id="Path_14" data-name="Path 14" d="M271.382,357.089l-.466-.23c-.532-.262-13.023-6.57-12.787-19.99.234-13.251,7.344-21.338,20.02-22.774a57.757,57.757,0,0,1,6.451-.351c6.678,0,23.43,1.164,34.708,11.946,10.727,10.256,15.778,27.758,15.988,28.5l.822,2.9Z" transform="translate(-125.461 -186.616)" fill="#004f62" style="mix-blend-mode: multiply;isolation: isolate"/>
    <path id="Path_15" data-name="Path 15" d="M300.965,301.993l-67.2-2.4s-1.029-14.4.6-16.42,64.107-.758,64.982,0S301.84,288.858,300.965,301.993Z" transform="translate(-119.018 -178.947)" fill="#363c50"/>
    <path id="Path_16" data-name="Path 16" d="M272.652,355.542s-11.736-5.78-11.523-17.9,6.306-19.229,18.021-20.555,28.96,1.042,39.364,10.988,15.371,27.472,15.371,27.472Z" transform="translate(-126.212 -187.343)" fill="#004f62"/>
    <path id="Rectangle_184" data-name="Rectangle 184" d="M5.5,0h8.837A9.563,9.563,0,0,1,23.9,9.563v1.9a0,0,0,0,1,0,0H0a0,0,0,0,1,0,0V5.5A5.5,5.5,0,0,1,5.5,0Z" transform="translate(151.082 134.592)" fill="#6bafbf"/>
    <path id="Path_17" data-name="Path 17" d="M160.915,236.773v14.714s14.246.758,17.558-.758,3.374-9.535-1.125-11.809S160.915,236.773,160.915,236.773Z" transform="translate(-100.5 -167.972)" fill="#004f62"/>
    <path id="Path_18" data-name="Path 18" d="M164.5,246.363l12.371,3.346h4.88V246.5a2.3,2.3,0,0,0-1.616-2.208C175.844,242.974,164.5,240.09,164.5,246.363Z" transform="translate(-101.405 -169.353)" fill="#6bafbf"/>
    <rect id="Rectangle_185" data-name="Rectangle 185" width="1.874" height="15.188" transform="translate(60.22 68.516)" fill="#fcbe32"/>
    <path id="Path_19" data-name="Path 19" d="M233.783,306.317l67.267,2.8V307.59l-67.2-2.4Z" transform="translate(-119.103 -184.545)" fill="#004f62" style="mix-blend-mode: multiply;isolation: isolate"/>
    <path id="Path_20" data-name="Path 20" d="M156.866,262.164s-11.122,27.533-17.995,30.943c0,0-5.873,2.905-6.373,11.241,0,0,10.872,5.809,12.184,7.7s7.436,32.711,30.429,35.742c0,0-18.245-10.861-18.87-32.206s6.561-40.636,6.842-43S163.771,261.122,156.866,262.164Z" transform="translate(-93.32 -174.102)" fill="#004f62"/>
    <path id="Path_21" data-name="Path 21" d="M230.548,267.052S198.695,276.792,197.4,283.8s15.985,53.22,15.985,53.22l14.927-5.346s-11.167-36.469-10.109-37.776,35.145-5.821,40.081-10.691,2.821-16.394,2.821-16.394Z" transform="translate(-109.825 -175.249)" fill="#d42a0f"/>
    <path id="Path_22" data-name="Path 22" d="M231.431,266.186l38.586,3.154-.163-1.813-7.1-4.046H241.887Z" transform="translate(-118.413 -174.441)" fill="#ffd580" style="mix-blend-mode: multiply;isolation: isolate"/>
    <path id="Path_23" data-name="Path 23" d="M215.525,357.753a19.327,19.327,0,0,1-6.523,3.8,4.09,4.09,0,0,0-3.115,4.277s25.918-.95,26.976-1.188a2.587,2.587,0,0,0,2-3.267c-.588-1.841-4.408-8.969-4.408-8.969Z" transform="translate(-111.91 -195.981)" fill="#363c50"/>
    <rect id="Rectangle_186" data-name="Rectangle 186" width="79.009" height="4.265" transform="translate(152.004 101.164)" fill="#363c50"/>
    <rect id="Rectangle_187" data-name="Rectangle 187" width="73.669" height="2.273" transform="translate(153.782 98.891)" fill="#ffd580" style="mix-blend-mode: multiply;isolation: isolate"/>
    <path id="Path_24" data-name="Path 24" d="M232.409,155.8s-3.84,4.989-2.429,17.027,1.489,12.434,2.429,12.434,9.638-2.692,11.362-1.584,3.134,4.2,3.134,4.2l10.473-4.638s4.685-23.634-3.3-29.258C248.171,149.816,237.7,149.084,232.409,155.8Z" transform="translate(-117.942 -147.148)" fill="#f2dbaf"/>
    <path id="Path_25" data-name="Path 25" d="M262.329,182.158l-15.535-5.819,18.6-12.569S266.57,171.874,262.329,182.158Z" transform="translate(-122.257 -150.29)" fill="#363c50"/>
    <path id="Path_26" data-name="Path 26" d="M229.669,170.913a14.554,14.554,0,0,1,4.358,7.056c1.078,4.357,17.283.856,26.488-2.692l.927-4.814L229.8,169.137Z" transform="translate(-117.949 -151.59)" fill="#f2dbaf" style="mix-blend-mode: multiply;isolation: isolate"/>
    <path id="Path_27" data-name="Path 27" d="M262.887,167.788s-17.645,6.772-24.9,4.791-1.413-3.852-10.472-10.584c0,0-.386-12.037,10.772-15C247.99,144.425,263.682,145.217,262.887,167.788Z" transform="translate(-117.411 -145.981)" fill="#004f62"/>
    <path id="Path_8085" data-name="Path 8085" d="M.382,0l2.36,0a.385.385,0,0,1,.383.387v.08a.383.383,0,0,1-.382.386l-2.36,0A.385.385,0,0,1,0,.466V.386A.383.383,0,0,1,.382,0Z" transform="translate(119.06 23.911) rotate(4.903)" fill="#004f62" style="mix-blend-mode: multiply;isolation: isolate"/>
    <path id="Path_28" data-name="Path 28" d="M231.706,201.091s-5.877,8.2-10.813,16.988c-10.226,3.088-27.387,9.028-27.387,9.028l2.869,9.028s25.928-6.058,31.57-8.553,16.573-16.156,17.4-21.858S239.229,193.251,231.706,201.091Z" transform="translate(-108.822 -158.469)" fill="#004f62"/>
    <path id="Path_29" data-name="Path 29" d="M195.729,233.531l-.731-2.3,31.588-11.473s12.306-20.066,15.838-19.726,1.158,4.823,1.158,4.823l-17.183,20.4L197,233.129Z" transform="translate(-109.194 -159.072)" fill="#004f62" style="mix-blend-mode: multiply;isolation: isolate"/>
    <path id="Path_30" data-name="Path 30" d="M231.427,248.809s-.54-7.307,5.729-10.713c1.176-4.514,2.507-15.522,2.116-20.67s-.157-14.73.94-19.323c3.056-4.91,15.75-10.216,28.68-2.376,0,0,5.455,14.179,4.045,39.957,0,0,6,10.419-3.087,14.465Z" transform="translate(-118.423 -157.064)" fill="#6bafbf"/>
    <path id="Path_31" data-name="Path 31" d="M247.377,197.007s10.278-6.116,17.026-3.274,8.908,3.023,8.908,3.023l-.424-1.807L260,188.523l-9.4,1.168Z" transform="translate(-122.423 -156.285)" fill="#004f62" style="mix-blend-mode: multiply;isolation: isolate"/>
    <path id="Path_32" data-name="Path 32" d="M267.631,219.584S249.425,239.4,246.7,241.1s-7.076,1.926-7.076,1.926l.8-4.761Z" transform="translate(-120.462 -163.809)" fill="#004f62" style="mix-blend-mode: multiply;isolation: isolate"/>
    <path id="Path_33" data-name="Path 33" d="M228.315,220.978c-2.351,1.188-30.982,11.4-30.982,11.4l2.89,9.029s30.561-6.772,33.381-8.2,19.865-12.948,23.038-17.581c1.493-2.179,1.53-6.618-.244-10.3-3.151-6.542-12.314-6.881-16.24-.782C236.364,210.443,229.943,220.156,228.315,220.978Z" transform="translate(-109.815 -159.111)" fill="#004f62"/>
    <path id="Path_34" data-name="Path 34" d="M241.338,197.443s-2.318.236-3.415-5.941c5.054-4.158,10.578-7.009,11.793-8.315s8.973-7.92,22.313-5.366c1.528,6.712,2.057,13.506-1.116,14.8S256.606,182.2,241.338,197.443Z" transform="translate(-120.051 -153.552)" fill="#6bafbf"/>
    <path id="Path_35" data-name="Path 35" d="M193.541,243.71l-11.434,3.609s-1.695,2.09-.52,4.079,2.863,3.931,3.846,3.931a1.927,1.927,0,0,0,1.593-1.088c0-.1-1.546-3.915.656-4.231s4.171,4.988,8.2-.221Z" transform="translate(-105.625 -169.653)" fill="#f2dbaf"/>
    <path id="Path_36" data-name="Path 36" d="M239.257,178.313l-1.335,12.839,2.434-.493,1.531-12.125Z" transform="translate(-119.977 -153.812)" fill="#6bafbf"/>
    <path id="Path_37" data-name="Path 37" d="M347.513,286.608h6.211l1.047-1.5h-6.249Z" transform="translate(-147.827 -179.68)" fill="#363c50" style="mix-blend-mode: multiply;isolation: isolate"/>
    <ellipse id="Ellipse_21" data-name="Ellipse 21" cx="2.469" cy="2.495" rx="2.469" ry="2.495" transform="translate(80.57 79.694)" fill="#6bafbf"/>
    <path id="Path_38" data-name="Path 38" d="M229.176,178.748s-2.532,5.481-2.345,5.671a25.455,25.455,0,0,0,3.593.347Z" transform="translate(-117.166 -153.918)" fill="#f2dbaf"/>
    <path id="Path_8086" data-name="Path 8086" d="M1.475,0c.81,0,1.463,1.151,1.459,2.575S2.269,5.157,1.459,5.16,0,4.009,0,2.584.665,0,1.475,0Z" transform="matrix(0.298, -0.954, 0.954, 0.298, 133.208, 4.751)" fill="#fff"/>
    <g id="Group_4" data-name="Group 4" transform="translate(99.731 162.285)">
      <line id="Line_1" data-name="Line 1" x2="1.096" y2="1.468" transform="translate(0 2.122)" fill="none" stroke="#fff" stroke-linecap="round" stroke-width="1"/>
      <line id="Line_2" data-name="Line 2" x2="1.234" y2="1.543" transform="translate(1.276 1.249)" fill="none" stroke="#fff" stroke-linecap="round" stroke-width="1"/>
      <line id="Line_3" data-name="Line 3" x2="1.29" y2="1.62" transform="translate(2.637 0.32)" fill="none" stroke="#fff" stroke-linecap="round" stroke-width="1"/>
      <path id="Path_39" data-name="Path 39" d="M219.19,360.139s.787,4.025,1.958,3.369S219.19,360.139,219.19,360.139Z" transform="translate(-214.954 -360.139)" fill="none" stroke="#fff" stroke-linecap="round" stroke-width="1"/>
    </g>
    <g id="Group_5" data-name="Group 5" transform="translate(93.131 155.782)">
      <line id="Line_4" data-name="Line 4" x2="1.096" y2="1.468" transform="translate(0 2.122)" fill="none" stroke="#fff" stroke-linecap="round" stroke-width="1"/>
      <line id="Line_5" data-name="Line 5" x2="1.234" y2="1.543" transform="translate(1.276 1.249)" fill="none" stroke="#fff" stroke-linecap="round" stroke-width="1"/>
      <line id="Line_6" data-name="Line 6" x2="1.29" y2="1.62" transform="translate(2.637 0.32)" fill="none" stroke="#fff" stroke-linecap="round" stroke-width="1"/>
      <path id="Path_40" data-name="Path 40" d="M210.352,351.557s.786,4.025,1.958,3.369S210.352,351.557,210.352,351.557Z" transform="translate(-206.115 -351.557)" fill="none" stroke="#fff" stroke-linecap="round" stroke-width="1"/>
    </g>
  </g>
  <g id="Group_7" data-name="Group 7" transform="translate(160.923 151.899)">
    <line id="Line_7" data-name="Line 7" x2="28.023" fill="none" stroke="#004f62" stroke-linecap="round" stroke-width="3" style="mix-blend-mode: multiply;isolation: isolate"/>
    <line id="Line_8" data-name="Line 8" x2="28.023" transform="translate(0 4.489)" fill="none" stroke="#004f62" stroke-linecap="round" stroke-width="3" style="mix-blend-mode: multiply;isolation: isolate"/>
    <line id="Line_9" data-name="Line 9" x2="28.023" transform="translate(0 8.978)" fill="none" stroke="#004f62" stroke-linecap="round" stroke-width="3" style="mix-blend-mode: multiply;isolation: isolate"/>
  </g>
</svg>
