<svg xmlns="http://www.w3.org/2000/svg" width="20" height="20" viewBox="0 0 20 20">
  <g id="Arabic_Flag" data-name="Arabic Flag" transform="translate(-0.421 0.556)">
    <path id="Path_12416" data-name="Path 12416" d="M10,0A10,10,0,1,1,0,10,10,10,0,0,1,10,0Z" transform="translate(0.421 -0.556)" fill="#3d9635"/>
    <path id="Path_12207" data-name="Path 12207" d="M4.693,8.827c-.033.515-.075,1.427.312,1.519.47.049.211-.9.381-1.07.032-.083.092-.083.1.022V10.1a.374.374,0,0,0,.269.388c.125-.009.206,0,.254.132q.031.694.058,1.387s.287.1.3-.78a9.181,9.181,0,0,1-.027-1.043c0-.1.112-.106.192-.053.125.1.178.216.369.168.292-.093.465-.249.47-.5a2.426,2.426,0,0,0-.131-.718c.012-.044-.058-.154-.043-.2.052.093.13.083.148,0a.723.723,0,0,0-.249-.436c-.1-.1-.256-.08-.312.136a1.273,1.273,0,0,0,.239.77.849.849,0,0,1,.059.388A.174.174,0,0,1,6.84,9.69s-.234-.2-.234-.237a1.051,1.051,0,0,0-.019-.623A.847.847,0,0,0,6.434,8.5c-.057-.075-.136-.075-.173,0a1.3,1.3,0,0,0,.019.819c.052.176.135.286.1.286-.032.1-.1.075-.146-.04a3.152,3.152,0,0,1-.08-.753c-.022-.2-.045-.623-.161-.731-.07-.106-.176-.053-.214.049a4.229,4.229,0,0,0,.012.572,6.862,6.862,0,0,1,.144.925c.01.436-.223.187-.213-.031a2.222,2.222,0,0,0-.008-.832c-.038-.114-.083-.141-.177-.118-.075-.009-.264.224-.317.612a3.485,3.485,0,0,0-.062.379c-.027.2-.144.339-.226-.031-.072-.269-.115-.929-.233-.775" transform="translate(-1.169 -3.342)" fill="#fff"/>
    <path id="Path_12208" data-name="Path 12208" d="M6.017,12.574c-.416.234-.819.445-1.228.665a1.3,1.3,0,0,1,.972-.885c.249.009.187.11.256.22" transform="translate(-1.213 -5.102)" fill="#fff"/>
    <path id="Path_12209" data-name="Path 12209" d="M7.941,8.028a.35.35,0,0,0-.079.026.261.261,0,0,0-.165.322c.118.81.194,1.427.312,2.233.021.1-.052.221-.142.212-.155-.119-.194-.361-.458-.348a.551.551,0,0,0-.436.462,1.322,1.322,0,0,0,0,.528.357.357,0,0,0,.436.125c.116-.053.212-.187.254-.154.026.053,0,.475-.547.8-.336.167-.6.211-.748-.1-.087-.193.007-.925-.211-.757-.647,1.876,1.514,2.14,1.756.079.016-.057.062-.115.1-.1.016.009.027.031.031.075-.05,1.863-1.671,1.986-1.945,1.4A1.957,1.957,0,0,1,6,12.2.361.361,0,0,0,5.934,12c-.066-.052-.154.093-.174.344a2.511,2.511,0,0,0-.019.449c.086,1.48,2.173.846,2.514-.374a4.681,4.681,0,0,0,.056-1.165h.007l0,0c.211.249.5.031.564-.053a.09.09,0,0,1,.145-.017.318.318,0,0,0,.5-.158,6.225,6.225,0,0,0,.07-.7.561.561,0,0,0-.225.105.072.072,0,0,0-.017.036c-.008.062-.017.132-.027.2a.179.179,0,0,1,0,.017.048.048,0,0,1-.021.018.068.068,0,0,1-.106-.053c-.049-.249-.255-.291-.38.105-.086.08-.237.093-.254-.017.022-.269-.075-.3-.266-.181-.062-.528-.125-1.03-.187-1.558.081,0,.152.066.226-.036a3.178,3.178,0,0,0-.338-.893l-.015-.018a.007.007,0,0,1-.006,0H7.979s-.01,0-.011-.009-.019,0-.027,0M7.36,10.921A.108.108,0,0,1,7.475,11a.155.155,0,0,1-.024.141c-.017.031-.072.018-.113.018a.1.1,0,0,1-.1-.057c-.015-.049.026-.1.046-.136s0-.009.007-.013a.147.147,0,0,1,.07-.031" transform="translate(-1.571 -3.344)" fill="#fff"/>
    <path id="Path_12210" data-name="Path 12210" d="M11.034,7.958A.389.389,0,0,0,10.888,8a.347.347,0,0,0-.046.418c.082.04.165.137.108.187-.231.278-.836.748-.866.832v.009h0a1.419,1.419,0,0,0,.451,0v0a6.73,6.73,0,0,0,.748-.846c-.031-.031-.062-.053-.093-.083a.062.062,0,0,1,0-.1A.3.3,0,0,0,11.221,8a.336.336,0,0,0-.187-.04M11,8.2c.038,0,.082.04.1.092s.012.115-.026.128S11,8.392,10.97,8.334s-.011-.119.028-.128c0,0,0,0,.007,0" transform="translate(-3.284 -3.318)" fill="#fff"/>
    <path id="Path_12211" data-name="Path 12211" d="M4.738,14.8a1.518,1.518,0,0,0-.125,1.215.242.242,0,0,0,.261.1c.144-.07.209-.4.173-.519-.048-.088-.086-.1-.135-.027-.1.229-.143.07-.153-.062a3.42,3.42,0,0,1,.027-.652c.026-.18,0-.128-.05-.052" transform="translate(-1.12 -6.072)" fill="#fff"/>
    <path id="Path_12212" data-name="Path 12212" d="M19.284,11.515c-.222-.542-.531-1.075-.629-1.277s-.84-1.413-.95-1.554c-.242-.322.391.136-.08-.507-.178-.172-.187-.181-.341-.322-.072-.062-.259-.167-.289.009a1.114,1.114,0,0,0,.016.383,1.36,1.36,0,0,0,.187.326A24.671,24.671,0,0,1,19.261,12.3c.1-.052.08-.691.02-.783" transform="translate(-5.995 -3.246)" fill="#fff"/>
    <path id="Path_12213" data-name="Path 12213" d="M19.1,13.394c-.045.053.107.295.305.29.33-.039.623-.249.89-.8a1.535,1.535,0,0,0,.2-.616,15.167,15.167,0,0,0-.222-3.116.551.551,0,0,1,.008-.216c.021-.031.094,0,.132-.07.058-.066-.149-.6-.267-.81-.042-.093-.057-.154-.125.009a1.3,1.3,0,0,0-.116.59c.158,1.224.206,2.306.312,3.527a.539.539,0,0,1-.077.361A3.091,3.091,0,0,1,19.1,13.4" transform="translate(-6.805 -3.32)" fill="#fff"/>
    <path id="Path_12214" data-name="Path 12214" d="M25.07,15.85c-.239.144-.239.311-.045.315a1.162,1.162,0,0,0,.991-.495,1.694,1.694,0,0,0,.16-.637A15.7,15.7,0,0,0,26,11.9a1.446,1.446,0,0,1-.033-.295c.022-.053.129.008.165-.058.059-.058-.276-.511-.4-.7-.04-.086-.055-.144-.125.012a.906.906,0,0,0-.069.544,31.414,31.414,0,0,1,.332,3.534,1.07,1.07,0,0,1-.066.289,2.146,2.146,0,0,1-.323.4c-.11.082-.339.163-.413.225" transform="translate(-9.071 -4.375)" fill="#fff"/>
    <path id="Path_12215" data-name="Path 12215" d="M26.094,12.151c0-.312.008-.581,0-.815s-.1-1.105-.134-1.29-.066-.471-.111-.7a2.119,2.119,0,0,1-.041-.4c.017-.062.094,0,.128-.07a2.652,2.652,0,0,0-.312-.978c-.043-.092-.125-.062-.224.088-.095.1-.062.317-.024.528A21.827,21.827,0,0,1,25.75,12.7c-.014.11.348-.339.345-.55" transform="translate(-9.241 -3.278)" fill="#fff"/>
    <path id="Path_12216" data-name="Path 12216" d="M23.4,11.321c-.15,0-.463-.326-.554-.515a.4.4,0,0,1,.017-.278c.055-.039.141-.088.2-.039,0,0,.066.1.054.115.081.044.117.017.125-.022,0-.062-.026-.1-.026-.171.034-.2.233-.225.312-.1a.784.784,0,0,1,.083.343c0,.057-.082-.009-.125,0s-.057.071-.062.125c-.01.145-.024.37-.026.541" transform="translate(-8.296 -4.247)" fill="#fff"/>
    <path id="Path_12217" data-name="Path 12217" d="M18.892,12.5c.042-.427-.014-1.29-.017-1.541-.014-.59-.1-1.731-.141-1.92-.047-.361.13.04.1-.171a2.4,2.4,0,0,0-.442-.929c-.066-.106-.062-.128-.168.026a1.237,1.237,0,0,0,.014.722,14.815,14.815,0,0,1,.278,2.1,21.015,21.015,0,0,1,.017,2.228c.113,0,.293-.207.355-.511" transform="translate(-6.439 -3.278)" fill="#fff"/>
    <path id="Path_12218" data-name="Path 12218" d="M25.859,11.821c-.261-.5-.66-1.079-.765-1.277s-1.005-1.677-1.117-1.807c-.329-.383.151-.062-.062-.366a2.769,2.769,0,0,0-.389-.422c-.077-.053-.125-.163-.15.017a4.051,4.051,0,0,0-.012.484.649.649,0,0,0,.131.3,28.179,28.179,0,0,1,2.36,3.853c.1-.052.065-.691,0-.779" transform="translate(-8.497 -3.283)" fill="#fff"/>
    <path id="Path_12219" data-name="Path 12219" d="M16.564,21.781a.256.256,0,0,0-.176.206.261.261,0,0,0,.1.252c-2.394,0-6.068-.044-6.852-.044-.442,0-1.835-.062-1.861-.062a1.338,1.338,0,0,0,1.3.616c1.064,0,5.988-.013,7.388-.013a.627.627,0,0,0,.089.59l.005,0a.008.008,0,0,0,.008,0h0c.093.027.134-.053.167-.105a8.746,8.746,0,0,0,1.074,0c.053.088.106.171.205.158.175-.044.312-.066.318-.475,0,0-.018-.7-.415-.652-.094.013-.357.044-.357.044-.3-.04-.53-.044-.872-.062.032-.044.087-.234.019-.3a.109.109,0,0,0-.082-.026H16.62a.028.028,0,0,1-.007-.009v0a.846.846,0,0,1-.038-.119h-.008m.163,1c.347.017.675,0,1.025.022a.164.164,0,0,1-.009.2,0,0,0,0,1,0,0h-.01L17.439,23c0-.009,0-.013,0-.022-.028-.093-.221-.083-.268-.009v.022a.025.025,0,0,0,0,.013,2.144,2.144,0,0,1-.446-.017c-.043-.062-.038-.176.015-.207" transform="translate(-3.068 -8.94)" fill="#fff"/>
    <path id="Path_12220" data-name="Path 12220" d="M12.231,8.268c-.239.766.138,1.611.4,1.532.187.083.307-.322.386-.762.054-.125.093-.136.12-.075-.008.59.037.722.171.9a.393.393,0,0,0,.567.009c.019-.017.234-.26.234-.26a.128.128,0,0,1,.2-.009c.069.07.062.2.213.282a.422.422,0,0,0,.466-.11c.086-.163.1-.221.144-.282.062-.092.166-.052.166-.022-.009.053-.068.1-.03.194.075.062.092.022.135.009.152-.083.267-.454.267-.454,0-.141-.062-.128-.11-.1s-.062.053-.12.092c-.074.009-.218.066-.288-.057-.074-.15-.074-.361-.131-.51,0-.009-.1-.234-.006-.249.044.009.14.039.156-.053.049-.088-.1-.343-.2-.467a.206.206,0,0,0-.331-.013.442.442,0,0,0-.088.273.47.47,0,0,0,.079.37,1.228,1.228,0,0,1,.187.753.275.275,0,0,1-.243.141c-.062-.017-.168-.049-.224-.507a3.622,3.622,0,0,0-.121-1.07c-.048-.141-.082-.277-.2-.035a.6.6,0,0,0-.069.524,1.732,1.732,0,0,1,.075.814,1.468,1.468,0,0,1-.14.224A.214.214,0,0,1,13.6,9.4a.354.354,0,0,1-.179-.28,4.473,4.473,0,0,0-.029-.9c-.071-.168-.191-.106-.241-.057A2.146,2.146,0,0,0,12.7,9.174c-.069.246-.141.176-.192.075-.125-.128-.132-1.15-.282-.982" transform="translate(-4.115 -3.204)" fill="#fff"/>
    <path id="Path_12221" data-name="Path 12221" d="M11.9,11.187s0,0-.007,0v0c-.016.009-.036.04-.077.075a.425.425,0,0,0-.077.33c0,.022.131.423.242.709a2.473,2.473,0,0,1,.092.956,2.238,2.238,0,0,1-.857,1,.4.4,0,0,1-.358,0v0a.255.255,0,0,1-.1-.229,2.187,2.187,0,0,0,.862-1,1.167,1.167,0,0,0,.023-.723.76.76,0,0,0-.146-.33v0c.048-.026.172.079.193.013a1.082,1.082,0,0,0-.249-.511.194.194,0,0,0-.3-.022c-.1.066-.125.3-.077.507.056.15.208.176.315.484v0a.657.657,0,0,1-.019.322,3.417,3.417,0,0,1-.645.678l0,0v0H10.7v0a.712.712,0,0,0,0-.1c0-.088.032-.3.029-.339v0c-.184.136-.249.55-.281.674A8.344,8.344,0,0,0,9.139,14.7c-.161.278,1.1-.326,1.246-.4a.007.007,0,0,1,.006,0,1.149,1.149,0,0,0,.113.26.627.627,0,0,0,.682.249,2.269,2.269,0,0,0,.986-.925c.037-.062.1-.11.152-.062a1.514,1.514,0,0,0,1.4.824c.158-.216.083-.326.019-.366-.021-.017-.341-.158-.389-.3-.031-.128.044-.242.2-.331a6.092,6.092,0,0,0,1.289-.277,1.371,1.371,0,0,1,.141-.5.224.224,0,0,1,.073-.088v-.009a.025.025,0,0,0,0-.009l-.073-.049-1.4-.009a.17.17,0,0,1-.039-.022V12.67a.085.085,0,0,1,.044-.031c.336-.049.93-.158.968-.806a.538.538,0,0,0-.493-.612.554.554,0,0,0-.429.638c-.012.084.027.255-.051.273-.516.057-1.078.419-1.1.679h-.007l0,0h-.007l-.006,0a.151.151,0,0,1-.069-.159,3.389,3.389,0,0,0-.355-1.347c-.071-.083-.1-.115-.125-.119H11.9m2.048.577a.192.192,0,0,1,.2.163v.017l-.009.009c-.027.031-.087.026-.147-.014a.169.169,0,0,1-.086-.125v0c0-.009,0-.013.006-.013l0-.009s0,0,.007-.009a.044.044,0,0,1,.033-.013m-1.3,1.33h.014a3.607,3.607,0,0,0,.586.075c.163.013.243.154.091.216s-.295.1-.295.348a.369.369,0,0,1,0,.211s0,.009-.006.009v.009h0l-.007,0a.006.006,0,0,1-.006,0c-.037,0-.089-.039-.129-.057a.911.911,0,0,1-.389-.647.158.158,0,0,1,.146-.172" transform="translate(-2.945 -4.669)" fill="#fff"/>
    <path id="Path_12222" data-name="Path 12222" d="M7.472,8.387c.163.083.465.049.452-.242,0-.026,0-.114-.007-.136-.032-.088-.125-.07-.143.022-.007.026.01.075-.012.092s-.065,0-.062-.075a.13.13,0,0,0-.026-.07.042.042,0,0,0-.039-.013c-.022,0-.022.009-.032.031a.206.206,0,0,0-.012.066c0,.031-.015.04-.034.044s-.014,0-.033-.009S7.5,8.079,7.5,8.057a.4.4,0,0,0-.007-.07.072.072,0,0,0-.041-.026c-.089,0-.095.114-.089.158-.007.009-.011.211.109.269" transform="translate(-2.182 -3.315)" fill="#fff"/>
    <path id="Path_12223" data-name="Path 12223" d="M15.07,12c.161.084.545.036.453-.249a1.351,1.351,0,0,0-.01-.136c-.032-.088-.121-.066-.143.022,0,.031.012.079-.011.1s-.066,0-.062-.079a.117.117,0,0,0-.026-.066.044.044,0,0,0-.037-.013c-.021,0-.021.009-.034.031a.257.257,0,0,0-.012.066c0,.031-.013.04-.032.044s-.014,0-.032-.009-.024-.017-.024-.04a.2.2,0,0,0-.011-.07.062.062,0,0,0-.039-.026c-.087,0-.092.114-.089.158,0,0-.009.207.111.269" transform="translate(-5.181 -4.777)" fill="#fff"/>
    <path id="Path_12224" data-name="Path 12224" d="M19.5,10.505c.161.083.464.044.452-.249,0-.022,0-.11-.007-.136-.034-.083-.125-.066-.143.027-.007.026.009.075-.014.088s-.062.009-.062-.075a.163.163,0,0,0-.026-.07.072.072,0,0,0-.036,0c-.021,0-.021,0-.034.026a.272.272,0,0,0-.012.07.035.035,0,0,1-.032.04c-.021,0-.017,0-.031-.009a.049.049,0,0,1-.024-.04.343.343,0,0,0-.011-.075.1.1,0,0,0-.039-.017c-.088,0-.1.114-.089.154-.006.009-.01.211.11.269" transform="translate(-6.907 -4.112)" fill="#fff"/>
    <path id="Path_12225" data-name="Path 12225" d="M21.753,12.01a1.225,1.225,0,0,0-.094,1.074.828.828,0,0,0,.348.445.226.226,0,0,0,.364-.044c.165-.194.169-.682.245-.78.056-.181.191-.15.257-.07a.72.72,0,0,0,.236.229.365.365,0,0,0,.52.039.642.642,0,0,0,.277-.379,15.493,15.493,0,0,0,.021-2.228c-.008-.053-.16-.916-.16-.925s-.022-.44-.037-.541c0-.044-.012-.057.027-.052.041.044.045.048.071.057s.079-.07.054-.145c-.125-.264-.257-.533-.386-.793-.029-.039-.07-.075-.121,0a.333.333,0,0,0-.093.238c.012.187.041.383.052.573.052.321.1.647.155.973.048.692.062,1.325.11,2.017a1.371,1.371,0,0,1-.166.718s-.113.079-.191,0a2.584,2.584,0,0,1-.283-.423c-.116-.118-.193-.088-.275,0a4.449,4.449,0,0,0-.482,1.022c-.041.07-.153.132-.276,0a1.607,1.607,0,0,1-.171-1" transform="translate(-7.825 -3.279)" fill="#fff"/>
    <path id="Path_12226" data-name="Path 12226" d="M19.575,8.038a.623.623,0,0,1,.212.555c-.029.2-.1.418-.161.388s.04-.2-.016-.379c-.034-.119-.23-.33-.209-.4a.133.133,0,0,1,.173-.168" transform="translate(-6.907 -3.345)" fill="#fff"/>
    <path id="Path_12227" data-name="Path 12227" d="M22.156,12.229a5.428,5.428,0,0,0-.031-.872c-.009-.229-.232-2.119-.279-2.294-.055-.33.219-.044.187-.237-.093-.242-.328-.6-.4-.81-.047-.093-.027-.172-.125-.022a2.079,2.079,0,0,0-.089.828,20.2,20.2,0,0,1,.444,3.981c.112,0,.241-.286.3-.572" transform="translate(-7.698 -3.3)" fill="#fff"/>
    <path id="Path_12228" data-name="Path 12228" d="M25.384,11.676c.135.079.211.489.2.608-.026.216-.1.449-.146.418s.011-.321-.016-.409c-.032-.128-.209-.361-.191-.431a.137.137,0,0,1,.156-.187" transform="translate(-9.198 -4.828)" fill="#fff"/>
    <path id="Path_12229" data-name="Path 12229" d="M10.752,13.639c.125.053.2.357.187.445-.026.158-.092.326-.14.312s.011-.238-.016-.3c-.009-.163-.187-.249-.181-.317-.034-.128.071-.15.151-.132" transform="translate(-3.479 -5.618)" fill="#fff"/>
    <path id="Path_12230" data-name="Path 12230" d="M5.341,7.879c.187.062.2.37.187.462-.026.163-.092.339-.141.317s0-.242-.026-.312c-.027-.1-.187-.273-.166-.326-.036-.11.07-.163.148-.141" transform="translate(-1.364 -3.287)" fill="#fff"/>
    <path id="Path_12231" data-name="Path 12231" d="M11.24,10.2a.4.4,0,0,0-.109.5.2.2,0,0,0,.231.08c.14.022.223-.3.223-.3s0-.088-.16.079c-.071.018-.08-.013-.1-.057a.44.44,0,0,1,.021-.246c.026-.08-.028-.115-.108-.057" transform="translate(-3.671 -4.218)" fill="#fff"/>
    <path id="Path_12232" data-name="Path 12232" d="M12.914,7.673a.594.594,0,0,0-.217.414c-.006.106-.024.106.039.176.047.075.093.066.184.009a.214.214,0,0,0,.088-.141c.022-.125-.115.057-.133-.079s.058-.176.142-.3c0-.083,0-.141-.1-.075" transform="translate(-4.295 -3.2)" fill="#fff"/>
    <path id="Path_12233" data-name="Path 12233" d="M14.4,7.872a2.86,2.86,0,0,0-.062.48c-.026.119.113.171.173.017a1.568,1.568,0,0,0,.1-.524c-.027-.181-.137-.171-.209.027" transform="translate(-4.934 -3.227)" fill="#fff"/>
    <path id="Path_12234" data-name="Path 12234" d="M23.141,12.588c.02-.018.766-.617.766-.617.077-.031.062.312.026.3a2.957,2.957,0,0,1-.792.623c-.036.027-.074-.233,0-.308" transform="translate(-8.398 -4.947)" fill="#fff"/>
    <path id="Path_12235" data-name="Path 12235" d="M24.165,12.95c.133.075.187.506.171.623,0,.229-.125.414-.178.388s.006-.286-.02-.379a2.024,2.024,0,0,1-.125-.436c-.037-.146.071-.225.151-.2" transform="translate(-8.74 -5.342)" fill="#fff"/>
    <path id="Path_12236" data-name="Path 12236" d="M17.107,15.818a1.128,1.128,0,0,1,.212-.207.118.118,0,0,1,.145.031c.013.08-.046.159-.027.269.015.044.027.1.1.075a.464.464,0,0,1,.348-.115c.093,0,.094.176.039.176a2.4,2.4,0,0,0-.475.187.1.1,0,0,1-.138-.022.166.166,0,0,1-.013-.154c.006-.088-.026-.136-.092-.132-.05.035-.093.052-.118-.009-.009-.049-.012-.075.02-.1" transform="translate(-6.012 -6.408)" fill="#fff"/>
    <path id="Path_12237" data-name="Path 12237" d="M25.428,16.181a.117.117,0,0,1,0,.163c-.054.057-.089.083-.143.141-.024.049-.039.119.036.141.139.044.463-.187.463-.2a.117.117,0,0,0,.031-.128c-.031-.039-.1-.017-.144-.017-.024,0-.1-.017-.062-.083a.64.64,0,0,0,.059-.125c.021-.057,0-.092-.077-.125a.611.611,0,0,0-.2,0c-.048.013-.062.04-.074.1,0,.1.057.092.113.132" transform="translate(-9.215 -6.546)" fill="#fff"/>
  </g>
</svg>
