<svg xmlns="http://www.w3.org/2000/svg" width="224.103" height="183.578" viewBox="0 0 224.103 183.578">
  <g id="ic_emptyorder" transform="translate(-75 -150.464)">
    <path id="Path_8107" data-name="Path 8107" d="M241.768,115.39s-25.451-27.884-65.746-26.535S101.368,117.19,72.949,138.328s-36.055,53.969-19.512,79.6,42.841,14.842,76.35,31.483,39.872,26.085,77.2,22.038,65.746-45.425,61.5-89.5S241.768,115.39,241.768,115.39Z" transform="translate(30.193 61.656)" fill="rgba(212,42,15,0.31)"/>
    <path id="Path_7554" data-name="Path 7554" d="M301.344,817.78h-6.092a8.419,8.419,0,0,0-15.873,0h-6.089a2.807,2.807,0,0,0-2.8,2.808V831.8a2.807,2.807,0,0,0,2.8,2.8h28.053a2.805,2.805,0,0,0,2.8-2.8V820.581A2.8,2.8,0,0,0,301.344,817.78Z" transform="translate(-95.305 -619.414)" fill="#fff"/>
    <path id="Exclusion_2" data-name="Exclusion 2" d="M-1090.233-3256.462h-56.279a5.563,5.563,0,0,1-5.488-5.613v-67.319a5.63,5.63,0,0,1,5.61-5.605h5.612v8.413a8.436,8.436,0,0,0,8.411,8.411h28.053a8.437,8.437,0,0,0,8.414-8.411V-3335h5.724a5.514,5.514,0,0,1,3.908,1.665,5.51,5.51,0,0,1,1.584,3.94v67.44a5.514,5.514,0,0,1-1.647,3.888A5.517,5.517,0,0,1-1090.233-3256.462Zm-14.587-15.873h0l2.679,2.679,7.015,7.015a2.887,2.887,0,0,0,2.055.851,2.885,2.885,0,0,0,2.054-.851,2.883,2.883,0,0,0,.85-2.054,2.887,2.887,0,0,0-.85-2.055l-9.695-9.694a14.427,14.427,0,0,0,2.411-8.006,14.542,14.542,0,0,0-14.525-14.525,14.541,14.541,0,0,0-14.525,14.525,14.541,14.541,0,0,0,14.525,14.525,14.434,14.434,0,0,0,8.006-2.41Zm11.749,9.093a1.443,1.443,0,0,1-1.027-.426l-6.449-6.449a19.023,19.023,0,0,0,2.054-2.054l6.449,6.449a1.443,1.443,0,0,1,.426,1.027,1.443,1.443,0,0,1-.426,1.027A1.443,1.443,0,0,1-1093.072-3263.243Zm-8.506-7.9h0l-2.059-2.06a14.6,14.6,0,0,0,2.053-2.053l2.061,2.06a17.6,17.6,0,0,1-2.053,2.053Zm-11.249-.229a13.088,13.088,0,0,1-13.073-13.073,13.087,13.087,0,0,1,13.073-13.073,13.088,13.088,0,0,1,13.073,13.073,12.964,12.964,0,0,1-2.49,7.665,13.126,13.126,0,0,1-2.919,2.919A12.964,12.964,0,0,1-1112.827-3271.377Zm0-24.693a11.633,11.633,0,0,0-11.62,11.62,11.634,11.634,0,0,0,11.62,11.621,11.634,11.634,0,0,0,11.621-11.621A11.634,11.634,0,0,0-1112.827-3296.07Zm0,21.788a10.179,10.179,0,0,1-10.167-10.168,10.179,10.179,0,0,1,10.167-10.167,10.179,10.179,0,0,1,10.168,10.167A10.18,10.18,0,0,1-1112.827-3274.282Zm7.989-10.895a.727.727,0,0,0-.726.726.727.727,0,0,0,.726.726.727.727,0,0,0,.726-.726A.727.727,0,0,0-1104.837-3285.177Zm-7.989-7.988a.727.727,0,0,0-.726.726.727.727,0,0,0,.726.726,7.313,7.313,0,0,1,6.783,4.666.73.73,0,0,0,.678.466.712.712,0,0,0,.26-.049.728.728,0,0,0,.418-.939,8.72,8.72,0,0,0-3.149-4.024A8.649,8.649,0,0,0-1112.827-3293.165Z" transform="translate(1310.352 3538.975)" fill="#fff"/>
  </g>
</svg>
