<svg xmlns="http://www.w3.org/2000/svg" width="27.512" height="27.517" viewBox="0 0 27.512 27.517">
  <path id="ic_language" d="M27.512,13.729A13.756,13.756,0,1,0,13.769,27.517,13.788,13.788,0,0,0,27.512,13.729ZM8.679,12.968a24.056,24.056,0,0,1,.49-4.394h9.179a23.963,23.963,0,0,1,.485,4.394Zm.505,6.051a23.735,23.735,0,0,1-.5-4.464H18.839a24.847,24.847,0,0,1-.505,4.464A70.641,70.641,0,0,0,9.184,19.019Zm.4-12.052a1.082,1.082,0,0,1,.04-.225c.315-.791.591-1.6.961-2.367a5.918,5.918,0,0,1,1.6-2.167,2.555,2.555,0,0,1,1.456-.651,2.539,2.539,0,0,1,1.962.9,10.013,10.013,0,0,1,2.267,4.234c.025.08.04.17.07.28A64.611,64.611,0,0,1,9.584,6.967Zm-.04,13.578a63.468,63.468,0,0,1,8.393.005c-.02.1-.03.16-.045.215A12.588,12.588,0,0,1,16.446,24,4.661,4.661,0,0,1,14.82,25.66a1.952,1.952,0,0,1-2.062.03,3.89,3.89,0,0,1-.856-.656,8.494,8.494,0,0,1-1.882-3.123C9.855,21.476,9.715,21.031,9.544,20.545ZM19.95,8.388c-.005,0,.005-.005.015-.005,1.436-.18,2.873-.36,4.309-.531a.314.314,0,0,1,.235.155c.245.505.5,1.011.7,1.537a11.293,11.293,0,0,1,.721,3.413h-5.47C20.285,11.426,20.12,9.925,19.95,8.388Zm5.966,6.166a.415.415,0,0,1,.01.1,12.329,12.329,0,0,1-1.356,4.77.357.357,0,0,1-.44.23c-.861-.13-1.732-.235-2.6-.345-.536-.065-1.071-.115-1.587-.175.17-1.547.335-3.068.505-4.585C22.262,14.554,24.089,14.554,25.916,14.554ZM1.587,12.963a12.266,12.266,0,0,1,1.4-4.955c.1-.18.21-.17.365-.15.9.12,1.792.24,2.688.35.516.065,1.031.115,1.521.17-.17,1.542-.335,3.058-.505,4.585Zm5.981,6.171c-.055.01-.125.025-.19.035-1.366.165-2.728.335-4.094.49A.379.379,0,0,1,3,19.489a10.743,10.743,0,0,1-1.111-2.943c-.145-.651-.22-1.311-.33-1.982h5.51C7.227,16.091,7.4,17.6,7.567,19.134Zm2.6-17.047c-.175.255-.3.435-.42.621A13.867,13.867,0,0,0,8.088,6.526c-.07.235-.145.34-.425.305-.836-.11-1.677-.18-2.517-.27-.36-.04-.721-.105-1.126-.16A12.325,12.325,0,0,1,10.17,2.087ZM17.332,25.43a14.337,14.337,0,0,0,2.162-4.595.3.3,0,0,1,.255-.14c.711.055,1.421.125,2.127.205.526.06,1.046.14,1.622.215A12.322,12.322,0,0,1,17.332,25.43Zm-13.293-4.3c.1-.025.165-.05.235-.06,1.136-.13,2.272-.25,3.408-.385.235-.03.33.03.39.265a12.675,12.675,0,0,0,1.221,3.063c.255.46.541.906.831,1.4A12.226,12.226,0,0,1,4.039,21.131Zm13.423-19a12.141,12.141,0,0,1,6.006,4.249.807.807,0,0,1-.12.045c-1.216.14-2.432.28-3.654.405-.065.005-.185-.11-.22-.2-.23-.631-.4-1.291-.671-1.9C18.4,3.839,17.913,2.988,17.462,2.127Z" transform="translate(0)" fill="#fff"/>
</svg>
