<svg xmlns="http://www.w3.org/2000/svg" width="16" height="16.003" viewBox="0 0 16 16.003">
  <path id="ic_language" d="M16,7.984A8,8,0,1,0,8.007,16,8.019,8.019,0,0,0,16,7.984ZM5.047,7.542a13.99,13.99,0,0,1,.285-2.556h5.338a13.936,13.936,0,0,1,.282,2.556Zm.294,3.519a13.8,13.8,0,0,1-.291-2.6h5.906a14.45,14.45,0,0,1-.294,2.6A41.082,41.082,0,0,0,5.341,11.061Zm.233-7.009A.629.629,0,0,1,5.6,3.921c.183-.46.343-.931.559-1.377a3.442,3.442,0,0,1,.929-1.26A1.486,1.486,0,0,1,7.932.905a1.476,1.476,0,0,1,1.141.524,5.823,5.823,0,0,1,1.319,2.462c.015.047.023.1.041.163A37.575,37.575,0,0,1,5.574,4.052Zm-.023,7.9a36.911,36.911,0,0,1,4.881,0c-.012.058-.017.093-.026.125a7.321,7.321,0,0,1-.841,1.88,2.711,2.711,0,0,1-.946.966,1.135,1.135,0,0,1-1.2.017,2.262,2.262,0,0,1-.5-.381,4.94,4.94,0,0,1-1.094-1.816C5.731,12.49,5.65,12.231,5.551,11.948ZM11.6,4.878s0,0,.009,0c.835-.1,1.671-.21,2.506-.309a.183.183,0,0,1,.137.09c.143.294.291.588.4.894a6.568,6.568,0,0,1,.419,1.985H11.9C11.8,6.645,11.7,5.772,11.6,4.878Zm3.47,3.586a.241.241,0,0,1,.006.058,7.17,7.17,0,0,1-.789,2.774.207.207,0,0,1-.256.134c-.5-.076-1.007-.137-1.511-.2-.311-.038-.623-.067-.923-.1.1-.9.2-1.784.294-2.666C12.947,8.464,14.009,8.464,15.071,8.464ZM.923,7.539a7.134,7.134,0,0,1,.815-2.882c.055-.1.122-.1.212-.087.521.07,1.042.14,1.563.2.3.038.6.067.885.1-.1.9-.2,1.778-.294,2.666ZM4.4,11.128c-.032.006-.073.015-.111.02-.795.1-1.586.2-2.381.285a.22.22,0,0,1-.166-.1A6.248,6.248,0,0,1,1.1,9.623C1.013,9.244.969,8.86.905,8.47h3.2C4.2,9.358,4.3,10.234,4.4,11.128ZM5.914,1.214c-.1.148-.175.253-.244.361A8.065,8.065,0,0,0,4.7,3.8c-.041.137-.084.2-.247.178-.486-.064-.975-.1-1.464-.157-.21-.023-.419-.061-.655-.093A7.168,7.168,0,0,1,5.914,1.214ZM10.08,14.789a8.338,8.338,0,0,0,1.257-2.672.173.173,0,0,1,.148-.081c.413.032.827.073,1.237.119.306.035.608.081.943.125A7.166,7.166,0,0,1,10.08,14.789Zm-7.731-2.5c.058-.015.1-.029.137-.035.661-.076,1.321-.146,1.982-.224.137-.017.192.017.227.154a7.371,7.371,0,0,0,.71,1.781c.148.268.314.527.483.815A7.11,7.11,0,0,1,2.349,12.289ZM10.155,1.237a7.061,7.061,0,0,1,3.493,2.471.469.469,0,0,1-.07.026c-.707.081-1.415.163-2.125.236-.038,0-.108-.064-.128-.114-.134-.367-.23-.751-.39-1.1C10.7,2.232,10.417,1.738,10.155,1.237Z" transform="translate(0)" fill="#004f62"/>
</svg>
