<svg xmlns="http://www.w3.org/2000/svg" xmlns:xlink="http://www.w3.org/1999/xlink" width="276" height="112" viewBox="0 0 276 112">
  <defs>
    <clipPath id="clip-path">
      <path id="Clip_6" data-name="Clip 6" d="M0,0H82.877V98.121H0Z" fill="none"/>
    </clipPath>
  </defs>
  <g id="Group_3915" data-name="Group 3915" transform="translate(-50 -290)">
    <path id="Fill_1" data-name="Fill 1" d="M29.61,43.977,0,103.4,40.271,42.788,3.553,0Z" transform="translate(157.473 294.633)" fill="#004f62"/>
    <path id="Fill_2" data-name="Fill 2" d="M0,9.475,7.107,0,36.718,33.164H15.4Z" transform="translate(193.123 338.68)" fill="#eb1d25"/>
    <path id="Fill_3" data-name="Fill 3" d="M0,37.9,20.135,0H36.718L7.107,43.824Z" transform="translate(193.123 291.08)" fill="#969896"/>
    <path id="Fill_4" data-name="Fill 4" d="M0,26.057,11.844,0H22.5l4.738,11.844L33.164,0H42.64L30.795,26.057H21.32l3.553-7.107L18.951,7.107,10.659,26.057Z" transform="translate(131.326 345.798)" fill="#969896"/>
    <g id="Group_7" data-name="Group 7" transform="translate(50 290)">
      <path id="Clip_6-2" data-name="Clip 6" d="M0,0H82.877V98.121H0Z" fill="none"/>
      <g id="Group_7-2" data-name="Group 7" clip-path="url(#clip-path)">
        <path id="Fill_5" data-name="Fill 5" d="M72.745,27.238c5.922-10.7-3.768-21.556-10.936-24.581C41.028-6.116,15.475,7.548,4.736,33.177s-2.6,53.514,18.182,62.288,46.334-4.892,57.073-30.52a62.01,62.01,0,0,0,2.885-8.581H70.117q-.271.7-.563,1.392c-9.023,21.532-28.8,33.726-44.178,27.235S4.85,55.782,13.873,34.25,42.676.523,58.052,7.014c7.728,3.263,12.873,10.623,14.933,19.874Z" transform="translate(0 0)" fill="#969896"/>
      </g>
      <path id="Fill_8" data-name="Fill 8" d="M21.32,10.659A10.66,10.66,0,1,1,10.66,0,10.66,10.66,0,0,1,21.32,10.659" transform="translate(62.677 30.836)" fill="#eb1d25"/>
    </g>
    <path id="Path_12417" data-name="Path 12417" d="M-63.987-14.385c-3.78,0-6.573,2.94-6.573,7.434,0,4.284,2.625,7.182,6.363,7.182,3.612,0,6.573-2.583,6.573-7.455C-57.624-11.424-60.123-14.385-63.987-14.385Zm-.084,1.491c3.045,0,4.515,2.94,4.515,5.754,0,3.213-1.638,5.88-4.536,5.88-2.877,0-4.515-2.709-4.515-5.733C-68.607-10.1-67.1-12.894-64.071-12.894ZM-54.789,0h1.827V-5.418a5.2,5.2,0,0,1,.084-.861A2.592,2.592,0,0,1-50.4-8.652a2.776,2.776,0,0,1,.63.063v-1.743A2,2,0,0,0-50.3-10.4a3.049,3.049,0,0,0-2.814,2.226h-.084l-.063-1.995h-1.617c.063.945.084,1.974.084,3.171Zm14.112-14.91v6.069h-.042A3.4,3.4,0,0,0-43.785-10.4c-2.478,0-4.578,2.079-4.557,5.46,0,3.087,1.89,5.166,4.347,5.166a3.76,3.76,0,0,0,3.465-2h.042L-40.4,0h1.659c-.063-.693-.084-1.722-.084-2.625V-14.91Zm0,10.647a3.21,3.21,0,0,1-.084.8A2.778,2.778,0,0,1-43.47-1.26c-2,0-3-1.7-3-3.759,0-2.247,1.134-3.927,3.045-3.927A2.718,2.718,0,0,1-40.761-6.8a3.262,3.262,0,0,1,.084.777Zm13.608-.483a6.97,6.97,0,0,0,.063-.861c0-1.869-.882-4.788-4.2-4.788-2.961,0-4.767,2.415-4.767,5.481S-34.1.21-30.975.21a8.232,8.232,0,0,0,3.381-.63l-.315-1.323a6.683,6.683,0,0,1-2.814.525,3.256,3.256,0,0,1-3.486-3.528Zm-7.119-1.323c.147-1.281.966-3,2.835-3,2.079,0,2.583,1.827,2.562,3Zm10,6.069h1.827V-5.418a5.2,5.2,0,0,1,.084-.861A2.592,2.592,0,0,1-19.8-8.652a2.776,2.776,0,0,1,.63.063v-1.743A2,2,0,0,0-19.7-10.4a3.049,3.049,0,0,0-2.814,2.226H-22.6l-.063-1.995h-1.617c.063.945.084,1.974.084,3.171Zm6.678-.483A5.8,5.8,0,0,0-14.658.21c2.415,0,3.8-1.26,3.8-3.045,0-1.512-.9-2.394-2.667-3.066-1.323-.5-1.932-.882-1.932-1.722,0-.756.609-1.386,1.7-1.386a3.956,3.956,0,0,1,2.079.588l.462-1.344a5.073,5.073,0,0,0-2.5-.63c-2.184,0-3.507,1.344-3.507,2.982,0,1.218.861,2.226,2.688,2.877,1.365.5,1.89.987,1.89,1.869,0,.84-.63,1.512-1.974,1.512a4.843,4.843,0,0,1-2.436-.735Zm14.6.441A29.489,29.489,0,0,0,.4.126c2.751,0,4.935-.714,6.258-2.037a7.486,7.486,0,0,0,2.037-5.5A6.519,6.519,0,0,0,6.7-12.5C5.46-13.65,3.591-14.259.966-14.259a26.169,26.169,0,0,0-3.885.294Zm1.827-12.579A10.381,10.381,0,0,1,1.05-12.81c3.864,0,5.754,2.121,5.733,5.46,0,3.822-2.121,6.006-6.027,6.006a11.537,11.537,0,0,1-1.848-.105ZM19.782-4.746a6.97,6.97,0,0,0,.063-.861c0-1.869-.882-4.788-4.2-4.788-2.961,0-4.767,2.415-4.767,5.481S12.747.21,15.876.21a8.232,8.232,0,0,0,3.381-.63l-.315-1.323a6.683,6.683,0,0,1-2.814.525,3.256,3.256,0,0,1-3.486-3.528ZM12.663-6.069c.147-1.281.966-3,2.835-3,2.079,0,2.583,1.827,2.562,3ZM22.659,0h1.848V-14.91H22.659Zm7.329,0V-10.164H28.14V0Zm-.924-14.175a1.126,1.126,0,0,0-1.155,1.155,1.1,1.1,0,0,0,1.113,1.134A1.091,1.091,0,0,0,30.2-13.02,1.1,1.1,0,0,0,29.064-14.175Zm3.255,4.011L36.183,0h1.764l3.99-10.164H40L38.031-4.452c-.336.924-.63,1.764-.861,2.6h-.063a26.138,26.138,0,0,0-.819-2.6l-1.995-5.712ZM52.164-4.746a6.97,6.97,0,0,0,.063-.861c0-1.869-.882-4.788-4.2-4.788-2.961,0-4.767,2.415-4.767,5.481S45.129.21,48.258.21a8.232,8.232,0,0,0,3.381-.63l-.315-1.323a6.683,6.683,0,0,1-2.814.525,3.256,3.256,0,0,1-3.486-3.528ZM45.045-6.069c.147-1.281.966-3,2.835-3,2.079,0,2.583,1.827,2.562,3ZM55.041,0h1.827V-5.418a5.2,5.2,0,0,1,.084-.861A2.592,2.592,0,0,1,59.43-8.652a2.776,2.776,0,0,1,.63.063v-1.743a2,2,0,0,0-.525-.063,3.049,3.049,0,0,0-2.814,2.226h-.084l-.063-1.995H54.957c.063.945.084,1.974.084,3.171Zm6.573-10.164L65.373-.8a1.611,1.611,0,0,1,.126.483,1.327,1.327,0,0,1-.147.441A5.6,5.6,0,0,1,63.8,2.184a4.888,4.888,0,0,1-1.617.9l.462,1.554a5.007,5.007,0,0,0,2.268-1.2C66.171,2.352,67.074.567,68.4-2.919l2.772-7.245H69.216L67.2-4.2c-.252.735-.462,1.512-.651,2.121h-.042c-.168-.609-.42-1.407-.651-2.079L63.63-10.164Z" transform="translate(254.831 397.359)" fill="#969896"/>
  </g>
</svg>
